<svg width="148" height="40" viewBox="0 0 148 40" fill="none" xmlns="http://www.w3.org/2000/svg">
<g id="Logo_MsHomeS" clip-path="url(#clip0_438_5911)">
<path id="Vector" d="M73.9999 39.6619C49.7034 39.6619 25.4069 39.6619 1.11047 39.6873C0.202655 39.6873 0.0375977 39.5474 0.0375977 38.8604C0.0706092 26.2911 0.0706092 13.7219 0.0375977 1.15261C0.0375977 0.452903 0.219161 0.325684 1.11047 0.325684C49.7034 0.351127 98.3128 0.351127 146.906 0.325684C147.814 0.325684 147.979 0.465625 147.979 1.15261C147.946 13.7219 147.946 26.2911 147.979 38.8604C147.979 39.5601 147.797 39.6873 146.906 39.6873C122.593 39.6492 98.2963 39.6619 73.9999 39.6619ZM147.219 1.45793C147.137 0.605565 146.328 0.770951 145.816 0.770951C123.484 0.745507 101.152 0.745508 78.8195 0.745508C72.5804 0.745508 66.3412 0.745508 60.102 0.745508C40.8563 0.745508 21.5941 0.758229 2.3484 0.732785C1.15999 0.732785 0.829874 0.961779 0.829874 1.9032C0.879391 14.0018 0.862885 26.0876 0.829874 38.1861C0.829874 39.0004 1.06095 39.2802 2.18335 39.2802C15.9656 39.2548 29.7479 39.2675 43.5303 39.2675C50.2481 39.2675 56.9824 39.2548 63.7003 39.2675C91.0668 39.2675 118.417 39.2675 145.783 39.293C146.939 39.293 147.335 39.1021 147.318 38.148C147.285 26.2275 147.302 14.3071 147.302 2.37391C147.302 2.06859 147.236 1.77598 147.203 1.47066L147.219 1.45793Z" fill="#45494B"/>
<path id="Vector_2" d="M147.319 2.34856C147.319 2.05595 147.352 1.69974 147.319 1.40714C147.335 0.478435 146.229 0.745596 145.718 0.745596C123.385 0.720152 101.152 0.758317 78.8198 0.758317C72.5806 0.758317 66.3414 0.758317 60.1022 0.758317C40.8565 0.758317 21.5943 0.77104 2.34861 0.745596C1.16019 0.745596 0.830078 0.97459 0.830078 1.91601C0.879595 14.0146 0.86309 26.1004 0.830078 38.199C0.830078 39.0132 1.06116 39.2931 2.18355 39.2931C15.9659 39.2676 29.7482 39.2803 43.5305 39.2803C50.2483 39.2803 56.9826 39.2676 63.7005 39.2803C91.067 39.2803 118.417 39.2803 145.784 39.3058C146.939 39.3058 147.335 39.1149 147.319 38.1608C147.302 26.1895 147.319 14.269 147.319 2.34856ZM145.239 38.6315C97.8839 38.6061 50.5289 38.6061 3.15739 38.6315C1.86994 38.6315 1.58934 38.3644 1.58934 37.3975C1.63886 25.7442 1.63886 14.0909 1.58934 2.43761C1.58934 1.52163 1.91946 1.34353 3.05835 1.34353C26.7441 1.36897 50.4134 1.36897 74.0991 1.36897C97.8674 1.36897 121.636 1.38169 145.404 1.35625C146.361 1.35625 146.559 1.58524 146.559 2.27223C146.543 14.0655 146.543 25.846 146.592 37.6392C146.592 38.4534 146.262 38.6315 145.239 38.6315Z" fill="#F2F2D4"/>
<path id="Vector_3" d="M74.1153 1.36871C97.8836 1.36871 121.652 1.3687 145.42 1.35598C146.378 1.35598 146.576 1.58498 146.576 2.27196C146.559 14.0652 146.559 25.8457 146.609 37.6389C146.609 38.4531 146.295 38.6312 145.272 38.6312C97.9166 38.6058 50.5616 38.6058 3.19012 38.6312C1.90267 38.6312 1.62207 38.3641 1.62207 37.3972C1.67159 25.7439 1.67159 14.0906 1.62207 2.43735C1.62207 1.52137 1.95219 1.34326 3.09108 1.34326C26.7438 1.36871 50.4296 1.36871 74.1153 1.36871ZM3.94938 36.9647C4.42805 36.9901 4.90672 37.0156 5.38538 37.0156C51.0238 37.0156 96.6787 37.0156 142.317 37.0156C144.298 37.0156 144.298 37.0156 144.298 35.438C144.298 25.0061 144.265 14.5613 144.314 4.12936C144.314 3.12433 143.968 2.92078 142.713 2.92078C123.203 2.95895 103.694 2.94622 84.1839 2.94622C57.9562 2.94622 31.7451 2.95895 5.51743 2.92078C4.09793 2.92078 3.81734 3.26427 3.81734 4.28203C3.86685 15.1211 3.85035 25.9602 3.86685 36.7993C3.80083 36.8247 3.73481 36.8375 3.68529 36.8629C3.78432 36.9138 3.86685 36.9392 3.94938 36.9647Z" fill="#45494B"/>
<path id="Vector_4" d="M3.88371 36.8247C3.94974 36.8629 3.98275 36.901 3.96624 36.9646C3.88371 36.9392 3.78468 36.9138 3.70215 36.8883C3.75167 36.8629 3.81769 36.8374 3.88371 36.8247Z" fill="#AAAB73"/>
<g id="Group">
<path id="Vector_5" d="M6.80531 33.0211C5.73243 33.0466 4.84112 33.7845 4.89064 34.5859C4.94016 35.2856 5.84797 35.9345 6.80531 35.9345C8.2248 35.9345 8.90154 35.451 8.86853 34.4205C8.83552 33.7463 7.74614 32.9957 6.80531 33.0211Z" fill="#F2F2D4"/>
<path id="Vector_6" d="M7.00325 6.69933C7.9936 6.69933 8.8684 6.06323 8.90142 5.31264C8.93443 4.56204 8.12565 3.86234 7.15181 3.81145C6.11194 3.76056 5.17112 4.39666 5.1216 5.19814C5.07208 5.97418 5.96339 6.6866 7.00325 6.69933Z" fill="#F2F2D4"/>
</g>
<path id="Vector_7" d="M144.331 4.14218C144.331 3.13714 143.984 2.93359 142.73 2.93359C123.22 2.97176 103.71 2.95904 84.2005 2.95904C57.9729 2.95904 31.7617 2.97176 5.53408 2.93359C4.11458 2.93359 3.83398 3.27709 3.83398 4.29484C3.8835 15.1339 3.867 25.973 3.8835 36.8121C3.94952 36.8503 3.98254 36.8884 3.96603 36.952C4.4447 36.9775 4.92336 37.0029 5.40203 37.0029C51.0404 37.0029 96.6953 37.0029 142.334 37.0029C144.314 37.0029 144.314 37.0029 144.314 35.4254C144.298 25.0061 144.281 14.5742 144.331 4.14218ZM142.746 4.38389C142.829 4.46022 142.895 4.53656 142.944 4.62561C142.878 4.53656 142.812 4.46022 142.746 4.38389ZM140.452 6.5339C140.337 6.49573 140.238 6.44484 140.138 6.38124C140.221 6.44484 140.337 6.48301 140.452 6.5339ZM139.726 4.37117C139.66 4.4475 139.594 4.52383 139.544 4.60017C139.594 4.51111 139.66 4.43478 139.726 4.37117ZM7.15164 3.81141C8.14199 3.86229 8.95077 4.54928 8.90125 5.31259C8.86824 6.07591 7.99343 6.71201 7.00309 6.69928C5.96323 6.69928 5.07192 5.97414 5.10493 5.1981C5.15444 4.39662 6.11178 3.7478 7.15164 3.81141ZM6.78851 35.947C5.84769 35.947 4.92336 35.2982 4.87385 34.5985C4.82433 33.7843 5.71564 33.0591 6.78851 33.0337C7.72934 33.0082 8.81872 33.7588 8.85173 34.4458C8.88475 35.4508 8.20801 35.947 6.78851 35.947ZM141.145 31.6215C139.28 31.9014 137.927 32.792 137.531 34.2423C137.299 35.1328 136.788 35.2855 135.764 35.2727C122.609 35.2473 109.454 35.26 96.2992 35.26C88.8881 35.26 81.477 35.26 74.066 35.26C53.5493 35.26 33.0162 35.26 12.4995 35.2727C11.5422 35.2727 10.9975 35.2091 10.6509 34.3186C10.1062 32.9319 8.95077 31.7869 6.87104 31.5834C6.04576 31.507 6.04575 31.1254 6.04575 30.6674C6.04575 28.1739 6.04575 25.6677 6.04575 23.1742C6.04575 18.5816 6.06226 13.9889 6.02925 9.39633C6.02925 8.6203 6.24382 8.26408 7.3167 8.11142C9.13233 7.85698 10.2547 6.89011 10.6674 5.55431C10.9315 4.72738 11.4101 4.52383 12.4665 4.52383C36.3173 4.54928 60.1846 4.53656 84.0354 4.53656C101.135 4.53656 118.235 4.53656 135.352 4.52383C136.54 4.52383 137.316 4.53656 137.613 5.73242C137.96 7.10639 139.396 7.95876 141.244 8.18775C141.971 8.2768 142.169 8.53124 142.169 9.05284C142.152 16.2789 142.152 23.505 142.169 30.7437C142.169 31.3417 141.888 31.507 141.145 31.6215Z" fill="#F2F2D4"/>
<path id="Vector_8" d="M142.169 9.05293C142.169 8.53133 141.971 8.2769 141.244 8.18784C139.396 7.95885 137.96 7.10648 137.613 5.73251C137.316 4.53665 136.524 4.52393 135.352 4.52393C118.252 4.53665 101.152 4.53665 84.0355 4.53665C60.1847 4.53665 36.3173 4.54937 12.4665 4.52393C11.4102 4.52393 10.9315 4.72748 10.6674 5.5544C10.2383 6.8902 9.11587 7.85707 7.31675 8.11151C6.26038 8.26417 6.0293 8.62039 6.0293 9.39643C6.07881 13.989 6.0458 18.5817 6.0458 23.1743C6.0458 25.6678 6.06231 28.174 6.0458 30.6675C6.0458 31.1255 6.0293 31.5071 6.87109 31.5835C8.95082 31.787 10.1062 32.932 10.6509 34.3187C10.9975 35.1965 11.5587 35.2728 12.4996 35.2728C33.0162 35.2601 53.5494 35.2601 74.066 35.2601C81.4771 35.2601 88.8882 35.2601 96.2992 35.2601C109.454 35.2601 122.609 35.2601 135.764 35.2728C136.788 35.2728 137.3 35.1202 137.531 34.2424C137.91 32.7921 139.264 31.9142 141.145 31.6216C141.888 31.5071 142.169 31.3418 142.169 30.7438C142.152 23.505 142.152 16.279 142.169 9.05293Z" fill="#AAAB73"/>
<g id="Group_2">
<path id="Vector_9" d="M28.4277 27.4356C26.447 27.4356 24.8789 27.4356 23.3109 27.4356C25.0605 27.0666 24.8954 26.0107 24.8954 25.0311C24.8954 20.5403 24.8954 16.0622 24.5818 11.5332C23.0963 16.7619 21.6108 21.9906 20.1253 27.2193C20.0262 27.2193 19.9272 27.232 19.8282 27.232C18.3096 21.927 16.8076 16.6219 15.2726 11.2533C14.6949 11.5459 14.8599 11.8385 14.8599 12.0802C14.8434 16.3039 14.8599 20.5148 14.8599 24.7385C14.8599 25.8453 15.124 26.8249 16.593 27.4228C15.3221 27.4228 14.0511 27.4228 12.5161 27.4228C14.3483 26.5196 14.0346 25.1838 14.0346 23.9625C14.0677 20.0823 14.0511 16.2021 14.0346 12.3092C14.0346 11.4059 14.1337 10.4518 12.7802 9.85387C13.7706 9.85387 14.7444 9.85387 15.7347 9.85387C16.56 9.85387 16.5435 10.3882 16.6591 10.7826C17.4513 13.645 18.2271 16.5202 19.0029 19.3953C19.399 20.8711 19.8117 22.3468 20.2408 23.9116C20.703 23.1101 20.703 22.9702 20.835 22.614C22.2215 18.7211 22.9973 14.9554 23.9711 11.0116C24.2187 10.032 24.7469 9.75209 25.9848 9.8157C26.678 9.85387 27.3383 9.82842 28.1636 9.95564C26.3975 10.5409 26.678 11.6731 26.6615 12.6909C26.645 16.7364 26.678 20.7947 26.645 24.8403C26.6615 25.8708 26.7111 26.8249 28.4277 27.4356Z" fill="#FAF9D5"/>
<path id="Vector_10" d="M60.7129 9.90479C62.5285 9.90479 64.3442 9.90479 66.1763 9.90479C63.816 10.5282 64.3112 12.0421 64.2947 13.3651C64.2782 17.1436 64.2782 20.922 64.2947 24.7004C64.2947 25.8708 64.4927 26.9649 66.3414 27.3974C64.4597 27.3974 62.5781 27.3974 60.7129 27.3974C62.7596 26.914 62.7266 25.6291 62.7431 24.3569C62.7431 22.7667 62.7266 21.1891 62.7761 19.5989C62.7926 18.9246 62.4625 18.7084 61.6207 18.7211C59.5575 18.7465 57.4943 18.7592 55.4476 18.7211C54.5728 18.7084 54.3087 18.9755 54.3252 19.6116C54.3582 21.2273 54.3747 22.8557 54.3417 24.4714C54.3087 25.7563 54.5233 26.9013 56.4214 27.4356C54.6058 27.4356 52.7736 27.4356 50.958 27.4356C52.8397 26.9522 52.7901 25.7563 52.7901 24.5986C52.8067 20.553 52.8067 16.4947 52.8067 12.4492C52.8067 11.3678 52.8067 10.2737 50.958 9.91751C52.7736 9.91751 54.5893 9.91751 56.3884 9.91751C54.0281 10.3755 54.3747 11.8131 54.3582 13.1107C54.3582 14.4592 54.3747 15.8078 54.3417 17.1563C54.3252 17.7542 54.5893 18.0087 55.3981 17.9959C57.4943 17.9705 59.607 17.9705 61.7033 17.9832C62.4955 17.9959 62.7926 17.7669 62.7761 17.1563C62.7431 15.6678 62.7596 14.1921 62.7596 12.7036C62.7266 11.5332 62.7596 10.2992 60.7129 9.90479Z" fill="#FAF9D5"/>
<path id="Vector_11" d="M82.9629 27.423C84.2503 26.9269 84.2999 26.2145 84.2999 25.4893C84.2999 23.0976 84.2834 20.6931 84.2999 18.3014C84.2999 17.5763 84.1843 16.902 83.1114 16.5585C83.3425 16.444 83.4251 16.3677 83.5406 16.3295C85.4718 15.5917 85.4718 15.5917 85.8349 17.2709C86.6437 16.3041 87.4029 15.3881 89.0205 15.3754C90.9352 15.3627 90.8526 16.6857 91.4799 17.5381C91.8925 17.4363 91.909 17.1819 92.0906 16.9783C92.4867 16.3931 93.0809 15.9351 93.8072 15.6171C95.1771 15.0319 96.5801 15.4135 97.1248 16.5331C97.554 17.3854 97.7686 18.276 97.7521 19.2047C97.7355 21.3038 97.7686 23.3902 97.7521 25.4893C97.7521 26.1763 97.7686 26.8378 98.7424 27.4358C97.3889 27.5757 96.2995 27.5375 94.8635 27.4612C96.2005 26.9269 96.25 26.1509 96.2665 25.3239C96.2995 23.0976 96.4316 20.8713 96.2335 18.6449C96.2005 18.2378 96.118 17.8307 95.8704 17.4745C95.2927 16.6349 94.1868 16.444 93.2295 17.0292C92.3712 17.5508 91.777 18.2251 91.7605 19.0902C91.7274 21.2147 91.7274 23.352 91.777 25.4766C91.7935 26.2017 91.876 26.9778 93.246 27.4358C91.6449 27.5757 90.407 27.5503 88.8389 27.4867C89.9943 27.0414 90.2584 26.3926 90.2584 25.6801C90.2749 23.3139 90.4235 20.9476 90.1594 18.594C90.1099 18.1996 89.9943 17.7798 89.7633 17.4363C89.2351 16.6094 88.1787 16.444 87.2544 17.0038C86.3136 17.5763 85.7689 18.2887 85.8019 19.2556C85.8514 21.3165 85.8349 23.3775 85.8019 25.4384C85.7854 26.1763 85.8679 26.8506 87.0068 27.4358C85.5873 27.423 84.4979 27.423 82.9629 27.423Z" fill="#FAF9D4"/>
<path id="Vector_12" d="M123.633 28.021C122.94 26.0873 122.923 24.3952 122.708 22.7032C123.517 23.1612 123.616 23.8864 124.029 24.4716C125.052 25.9346 126.422 27.0414 128.7 27.2704C130.681 27.4612 132.727 26.647 133.635 25.2858C134.444 24.0772 134.048 22.5124 132.628 21.3801C131.126 20.1843 129.344 19.2556 127.578 18.3142C126.686 17.8307 125.762 17.36 124.97 16.7875C123.204 15.4899 123.154 13.8615 123.765 12.1822C124.359 10.5665 125.894 9.76502 127.957 9.49786C129.311 9.31975 130.549 9.68869 131.787 10.0576C132.727 10.3375 133.685 10.6428 134.246 9.47241C134.857 11.2408 134.873 12.9328 135.121 14.8665C134.329 14.294 134.312 13.7343 134.064 13.2763C133.19 11.7115 132.051 10.3121 129.624 10.0449C127.677 9.82863 126.241 10.3884 125.432 11.597C124.623 12.8183 125.019 13.976 126.043 14.9937C127.479 16.3931 129.492 17.271 131.341 18.2887C132.661 19.0266 133.965 19.7645 134.84 20.8458C136.326 22.6396 136.194 24.5606 134.494 26.2145C133.074 27.6012 130.219 28.2373 127.924 27.6775C127.545 27.5884 127.182 27.4739 126.818 27.3594C125.663 26.9778 124.491 26.5325 123.633 28.021Z" fill="#F9F8D3"/>
<path id="Vector_13" d="M32.5212 24.0646C32.7193 24.5226 32.9008 24.9933 33.1319 25.4513C33.9572 27.1051 36.1855 27.7921 38.2982 27.0415C39.6022 26.5708 40.0313 25.235 39.206 24.1664C38.7273 23.543 37.9846 23.1104 37.2253 22.7033C36.1194 22.1054 34.9805 21.5329 33.8912 20.9096C32.1416 19.8918 31.6959 18.1743 32.7688 16.7622C33.7591 15.4646 35.8553 14.9557 37.8195 15.5536C38.1001 15.6427 38.4302 15.8462 38.6613 15.7953C40.0478 15.49 39.8662 16.2279 39.8662 16.8258C39.8662 17.411 39.8662 17.9962 39.8662 18.8995C39.4866 18.0726 39.2885 17.5001 38.9914 16.9785C38.4467 16.0752 37.5389 15.5663 36.1855 15.6427C34.8815 15.7063 33.9242 16.1643 33.5115 17.1439C33.0989 18.098 33.5776 18.8868 34.5514 19.4593C35.8388 20.2098 37.1593 20.935 38.5293 21.5965C41.1042 22.8433 41.4343 24.1918 40.543 25.9602C39.7672 27.4613 37.5884 28.0211 35.0466 27.5377C34.3038 27.3977 33.5776 27.0924 32.7523 27.3214C32.125 27.4995 32.2901 27.0542 32.2736 26.8507C32.2571 25.9474 32.2571 25.0315 32.2571 24.1282C32.3396 24.1028 32.4221 24.0773 32.5212 24.0646Z" fill="#F8F7D1"/>
<path id="Vector_14" d="M81.2298 21.1002C81.2298 21.0493 81.2298 20.9984 81.2298 20.9602C81.0812 19.4463 80.9987 18.9374 80.3385 17.9197C79.2986 16.2785 77.549 15.4771 75.2217 15.3371C72.8944 15.2099 70.9467 15.8206 69.7253 17.3726C67.6456 20.0061 67.596 22.7795 69.5767 25.4383C71.9866 28.6697 77.8791 28.5298 80.1899 25.2602C81.0317 24.0644 81.2463 22.7031 81.2133 21.291C81.2133 21.2528 81.2133 21.2147 81.2133 21.1765C81.2463 21.1383 81.2463 21.1129 81.2298 21.1002ZM79.1005 24.7768C78.4733 25.9981 77.516 26.9395 75.6508 27.1049C73.6536 27.2703 72.3332 26.4815 71.4914 25.2602C70.0224 23.1611 69.6923 20.8966 70.336 18.5812C70.7156 17.1818 71.805 16.1768 73.7032 15.9351C75.6013 15.6933 77.0043 16.3549 78.0277 17.5635C79.1996 18.9374 79.5792 20.4768 79.5792 22.0925C79.5957 22.9957 79.5297 23.9117 79.1005 24.7768Z" fill="#F9F8D4"/>
<path id="Vector_15" d="M112.772 23.7464C112.392 24.1662 112.095 24.6115 111.65 25.0186L111.633 25.0313C111.286 25.3239 110.775 25.591 110.296 25.82C107.721 27.0922 104.618 26.3925 103.545 24.1916C103.001 23.0721 102.852 22.3342 102.72 20.9221C102.637 20.0316 102.968 19.6753 104.189 19.6881C106.599 19.7135 109.009 19.7135 111.419 19.7008C111.947 19.7008 112.458 19.739 112.491 19.1029C112.574 17.3091 110.56 15.5026 108.183 15.3117C105.724 15.1209 103.859 15.9097 102.703 17.5126C100.871 20.0188 100.838 22.6904 102.225 25.3239C103.248 27.2703 105.774 28.0973 108.398 27.5629C109.983 27.2322 111.055 26.4307 111.947 25.4511C112.442 24.9677 112.855 24.4588 112.772 23.7464ZM103.017 18.3777C103.908 16.3804 106.087 15.4517 108.282 16.1387C108.91 16.3422 109.421 16.6475 109.784 17.0801C110.263 17.6526 111.039 18.5177 110.346 18.9248C109.751 19.2682 108.976 19.2046 108.48 19.2301C107.903 19.2682 107.243 19.2174 106.632 19.2174C105.675 19.2174 104.717 19.2428 103.743 19.2301C102.984 19.2046 102.753 18.9629 103.017 18.3777Z" fill="#FAF9D4"/>
<path id="Vector_16" d="M45.3627 30.3492C46.3016 30.3492 47.0628 29.7626 47.0628 29.0389C47.0628 28.3152 46.3016 27.7285 45.3627 27.7285C44.4238 27.7285 43.6626 28.3152 43.6626 29.0389C43.6626 29.7626 44.4238 30.3492 45.3627 30.3492Z" fill="#FAF9D5"/>
<path id="Vector_17" d="M117.922 30.3492C118.861 30.3492 119.622 29.7626 119.622 29.0389C119.622 28.3152 118.861 27.7285 117.922 27.7285C116.983 27.7285 116.222 28.3152 116.222 29.0389C116.222 29.7626 116.983 30.3492 117.922 30.3492Z" fill="#FAF9D5"/>
</g>
<path id="Vector_18" d="M142.006 35.7734C142.945 35.4131 143.326 34.5347 142.859 33.8115C142.391 33.0884 141.251 32.7943 140.313 33.1546C139.375 33.515 138.993 34.3934 139.461 35.1165C139.928 35.8397 141.068 36.1338 142.006 35.7734Z" fill="#45494B"/>
<path id="Vector_19" d="M142.003 6.52734C142.941 6.16697 143.323 5.28859 142.855 4.56542C142.388 3.84226 141.248 3.54816 140.31 3.90853C139.371 4.2689 138.99 5.14728 139.457 5.87044C139.925 6.5936 141.065 6.88771 142.003 6.52734Z" fill="#45494B"/>
<path id="Vector_20" d="M8.85913 34.8042C9.09878 34.0176 8.46574 33.2302 7.44519 33.0455C6.42465 32.8608 5.40306 33.3487 5.16341 34.1353C4.92376 34.9219 5.55681 35.7093 6.57735 35.894C7.5979 36.0787 8.61949 35.5908 8.85913 34.8042Z" fill="#45494B"/>
<path id="Vector_21" d="M8.85523 5.56007C9.09487 4.77348 8.46183 3.98608 7.44129 3.80137C6.42074 3.61666 5.39915 4.10459 5.15951 4.89118C4.91986 5.67777 5.5529 6.46517 6.57345 6.64988C7.59399 6.83459 8.61558 6.34666 8.85523 5.56007Z" fill="#45494B"/>
</g>
<defs>
<clipPath id="clip0_438_5911">
<rect width="148" height="40" fill="white"/>
</clipPath>
</defs>
</svg>
