<svg width="25" height="24" viewBox="0 0 25 24" fill="none" xmlns="http://www.w3.org/2000/svg">
<g id="fluent:phone-20-regular">
<path id="Vector" d="M11.3 16.7999C11.1409 16.7999 10.9883 16.8631 10.8757 16.9756C10.7632 17.0882 10.7 17.2408 10.7 17.3999C10.7 17.559 10.7632 17.7116 10.8757 17.8242C10.9883 17.9367 11.1409 17.9999 11.3 17.9999H13.7C13.8591 17.9999 14.0117 17.9367 14.1243 17.8242C14.2368 17.7116 14.3 17.559 14.3 17.3999C14.3 17.2408 14.2368 17.0882 14.1243 16.9756C14.0117 16.8631 13.8591 16.7999 13.7 16.7999H11.3ZM8.9 2.3999C8.26348 2.3999 7.65303 2.65276 7.20294 3.10285C6.75286 3.55293 6.5 4.16338 6.5 4.7999V19.1999C6.5 19.8364 6.75286 20.4469 7.20294 20.897C7.65303 21.347 8.26348 21.5999 8.9 21.5999H16.1C16.7365 21.5999 17.347 21.347 17.7971 20.897C18.2471 20.4469 18.5 19.8364 18.5 19.1999V4.7999C18.5 4.16338 18.2471 3.55293 17.7971 3.10285C17.347 2.65276 16.7365 2.3999 16.1 2.3999H8.9ZM7.7 4.7999C7.7 4.48164 7.82643 4.17642 8.05147 3.95137C8.27652 3.72633 8.58174 3.5999 8.9 3.5999H16.1C16.4183 3.5999 16.7235 3.72633 16.9485 3.95137C17.1736 4.17642 17.3 4.48164 17.3 4.7999V19.1999C17.3 19.5182 17.1736 19.8234 16.9485 20.0484C16.7235 20.2735 16.4183 20.3999 16.1 20.3999H8.9C8.58174 20.3999 8.27652 20.2735 8.05147 20.0484C7.82643 19.8234 7.7 19.5182 7.7 19.1999V4.7999Z" fill="#C2D1D9"/>
</g>
</svg>
