<svg width="16" height="28" viewBox="0 0 16 28" fill="none" xmlns="http://www.w3.org/2000/svg">
<path d="M1.10508 14.8145L13.6443 26.762C13.8536 26.9614 14.1315 27.0727 14.4206 27.0727C14.7096 27.0727 14.9876 26.9614 15.1968 26.762L15.2103 26.7485C15.3121 26.6518 15.3932 26.5354 15.4485 26.4064C15.5039 26.2774 15.5325 26.1385 15.5325 25.9981C15.5325 25.8577 15.5039 25.7188 15.4485 25.5898C15.3932 25.4608 15.3121 25.3444 15.2103 25.2477L3.40233 13.9977L15.2103 2.75223C15.3121 2.65554 15.3932 2.53915 15.4485 2.41015C15.5039 2.28115 15.5325 2.14224 15.5325 2.00185C15.5325 1.86147 15.5039 1.72255 15.4485 1.59355C15.3932 1.46455 15.3121 1.34817 15.2103 1.25148L15.1968 1.23798C14.9876 1.03853 14.7096 0.927261 14.4206 0.927261C14.1315 0.927261 13.8536 1.03853 13.6443 1.23798L1.10508 13.1855C0.994802 13.2905 0.907009 13.4169 0.847022 13.5569C0.787035 13.6969 0.756104 13.8477 0.756104 14C0.756104 14.1523 0.787035 14.303 0.847022 14.443C0.907009 14.583 0.994802 14.7094 1.10508 14.8145Z" fill="#505D68"/>
</svg>
