<svg width="24" height="24" viewBox="0 0 24 24" fill="none" xmlns="http://www.w3.org/2000/svg">
<g id="icon_basket" clip-path="url(#clip0_438_5952)">
<path id="Vector" d="M23.8047 6.65627C23.7359 6.55857 23.6446 6.47883 23.5386 6.42376C23.4326 6.36868 23.3148 6.3399 23.1954 6.33982H7.27811L6.07323 2.18482C5.60073 0.548695 4.47796 0.37207 4.01746 0.37207H0.804832C0.393059 0.37207 0.0600586 0.705445 0.0600586 1.11682C0.0600586 1.5282 0.393434 1.86155 0.804809 1.86155H4.01706C4.11868 1.86155 4.42881 1.86155 4.64033 2.59242L8.78521 17.8253C8.87521 18.1467 9.16808 18.3687 9.50218 18.3687H19.6264C19.9407 18.3687 20.2212 18.1718 20.3273 17.8759L23.8958 7.33652C23.978 7.10815 23.9438 6.8539 23.8047 6.65627H23.8047ZM19.1023 16.8796H10.0675L7.69672 7.8297H22.1365L19.1023 16.8796ZM17.6252 19.8781C16.5895 19.8781 15.7502 20.7173 15.7502 21.7531C15.7502 22.7888 16.5895 23.6281 17.6252 23.6281C18.661 23.6281 19.5002 22.7888 19.5002 21.7531C19.5002 20.7173 18.661 19.8781 17.6252 19.8781ZM10.8752 19.8781C9.83947 19.8781 9.00022 20.7173 9.00022 21.7531C9.00022 22.7888 9.83947 23.6281 10.8752 23.6281C11.911 23.6281 12.7502 22.7888 12.7502 21.7531C12.7502 20.7173 11.911 19.8781 10.8752 19.8781Z" fill="#A1AEB7"/>
</g>
<defs>
<clipPath id="clip0_438_5952">
<rect width="24" height="24" fill="white"/>
</clipPath>
</defs>
</svg>
